<svg xmlns="http://www.w3.org/2000/svg"><defs><style>.icon { display: none; }.icon:target { display: inline; }</style></defs><svg viewBox="0 0 57 42.094666"><g id="src-1" class="icon">
<path d="M56.6904 2.69814C56.5253 2.36795 56.2983 2.07902 56.0507 1.85201C55.6586 1.50118 55.2046 1.25354 54.7299 1.12971C54.2553 0.985251 53.76 0.92334 53.244 0.92334C52.9138 0.92334 52.5836 0.943981 52.2534 0.985255L3.90044 7.34151C3.40514 7.40343 2.93049 7.50661 2.4971 7.65107C1.85735 7.87808 1.25887 8.20828 0.784215 8.70357C0.536568 8.95122 0.350833 9.26077 0.206372 9.61161C0.0619116 9.9418 0 10.3133 0 10.6847C0 11.0356 0.0619135 11.3864 0.185737 11.7166C0.350835 12.1913 0.619117 12.6246 0.928675 13.0167C1.23823 13.4089 1.63034 13.7597 2.06372 14.1105L8.04852 18.7539C8.4819 19.0841 8.93592 19.5587 9.3693 20.1159C10.0091 20.9621 10.5869 21.9939 10.979 23.0258C11.3711 24.0577 11.5981 25.1102 11.5981 25.9356L11.6807 38.2767C11.6807 38.6688 11.7013 39.0403 11.7219 39.3705C11.7426 39.6181 11.7632 39.8451 11.8045 40.0515C11.8251 40.2166 11.8664 40.3611 11.9077 40.5262C11.9696 40.7738 12.0521 41.0214 12.2791 41.331C12.3823 41.4961 12.5474 41.6612 12.7951 41.8263C13.0427 41.9914 13.3936 42.0946 13.7444 42.0946C14.1365 42.0946 14.4667 41.9708 14.6937 41.8263C14.735 41.8057 14.7556 41.785 14.7762 41.7644L14.7969 41.785L26.9522 32.8904L27.6539 33.427C28.8715 34.3556 30.3367 34.789 31.7607 34.789C32.7925 34.789 33.845 34.562 34.7737 34.0873C35.723 33.6333 36.5692 32.9317 37.2295 32.0443L55.8237 7.05259C56.1745 6.57794 56.4634 6.08264 56.6698 5.58735C56.8762 5.09206 57 4.57613 57 4.01892C57 3.60618 56.8968 3.13152 56.6904 2.69814ZM33.3291 31.2188C32.8338 31.4664 32.2766 31.5902 31.74 31.5902C30.9765 31.5902 30.2335 31.3632 29.5938 30.8679L23.6915 26.4309C23.5883 26.3484 23.4645 26.2865 23.3407 26.2039L50.9946 8.12573L34.6293 30.1456C34.2784 30.6203 33.8244 30.9711 33.3291 31.2188ZM14.8175 25.9356C14.8175 25.0482 14.6731 24.1402 14.4254 23.2322C14.1365 22.1797 13.7031 21.1272 13.1665 20.1366L13.3523 20.0747L43.8128 8.97185L19.4815 24.8831L17.9957 25.8531L17.9337 25.8944L17.1083 26.5548C16.386 27.2564 15.87 28.1645 15.5811 29.217L14.8588 31.8585L14.8175 25.9356ZM10.0091 16.2155L4.02426 11.5721C3.65279 11.2832 3.40514 11.0149 3.30195 10.8498C3.30195 10.8498 3.30195 10.8498 3.30195 10.8292C3.34323 10.8086 3.36387 10.7879 3.42578 10.7673C3.61151 10.6847 3.92107 10.6022 4.31318 10.5609L44.5145 5.27779L11.2679 17.3918C10.8552 16.9791 10.4424 16.5663 10.0091 16.2155ZM17.0257 36.1717L18.6973 30.0424C18.8831 29.4027 19.1513 28.99 19.4196 28.7629C19.6879 28.5359 19.9562 28.4327 20.2864 28.4327C20.6579 28.4327 21.1532 28.5772 21.731 29.0106L24.2281 30.8886L17.0257 36.1717Z" fill="url(#paint0_linear_2_167)"/>
<defs>
<linearGradient id="paint0_linear_2_167" x1="1.20423" y1="0.923327" x2="56.483" y2="5.32276" gradientUnits="userSpaceOnUse">
<stop offset="0.206287" stop-color="#4F9CFF"/>
<stop offset="0.940271" stop-color="#A483E2"/>
</linearGradient>
</defs>
</g></svg><svg viewBox="0 0 13 13"><g id="src-2" class="icon">
<path d="M11 8L12 8V6H11V8ZM0 8L11 8V6L0 6L0 8Z" fill="#388AF3"/>
<path d="M7 13L13 7L7 1" stroke="#388AF3" stroke-width="2"/>
</g></svg><svg viewBox="0 0 34 34"><g id="src-3" class="icon">
<circle cx="17" cy="17" r="17" fill="#388AF3"/>
<path fill-rule="evenodd" clip-rule="evenodd" d="M21.9414 10.0283L7.25081 15.6496C6.24393 16.0402 6.2617 16.5934 7.07813 16.8504L10.839 18.0148L19.5633 12.5636C19.9683 12.2964 20.3441 12.4476 20.0369 12.716L12.9772 19.0455L12.7068 22.8926C13.1004 22.8926 13.2718 22.7225 13.475 22.5209L15.3122 20.7643L19.1214 23.5504C19.8159 23.941 20.3124 23.7394 20.4978 22.9102L22.9991 11.2153L22.9978 11.2165C23.2188 10.1933 22.6233 9.7838 21.9414 10.0283Z" fill="white"/>
</g></svg><svg viewBox="0 0 34 34"><g id="src-4" class="icon">
<circle cx="17" cy="17" r="17" fill="#7BE495"/>
<path fill-rule="evenodd" clip-rule="evenodd" d="M15.4381 12.7497C15.2881 12.4162 15.1302 12.4095 14.9875 12.4037C14.8707 12.3987 14.7371 12.399 14.6037 12.399C14.4701 12.399 14.2532 12.4492 14.0697 12.6496C13.8861 12.85 13.3687 13.3344 13.3687 14.3197C13.3687 15.3051 14.0864 16.2572 14.1864 16.391C14.2865 16.5245 15.5719 18.6111 17.6074 19.4138C19.2991 20.0809 19.6434 19.9482 20.0106 19.9148C20.3778 19.8814 21.1954 19.4305 21.3623 18.9628C21.5293 18.4952 21.5293 18.0945 21.4792 18.0107C21.4291 17.9272 21.2956 17.8772 21.0953 17.777C20.895 17.6769 19.9104 17.1923 19.7268 17.1256C19.5432 17.0588 19.4097 17.0254 19.2762 17.2259C19.1427 17.4262 18.7591 17.8772 18.6422 18.0107C18.5254 18.1445 18.4086 18.1612 18.2083 18.0611C18.008 17.9606 17.363 17.7494 16.5978 17.0671C16.0025 16.5363 15.6005 15.8808 15.4837 15.6803C15.3669 15.48 15.4712 15.3715 15.5716 15.2717C15.6616 15.182 15.7719 15.0379 15.8721 14.921C15.972 14.804 16.0054 14.7206 16.0722 14.5871C16.1389 14.4533 16.1055 14.3364 16.0555 14.2362C16.0054 14.1361 15.6162 13.1457 15.4381 12.7497Z" fill="white"/>
<path d="M23.1108 10.4372C21.5975 8.92279 19.5852 8.08835 17.4413 8.0874C13.0233 8.0874 9.42795 11.6816 9.42617 16.0993C9.42565 17.5115 9.79463 18.89 10.496 20.1051L9.35889 24.2569L13.6078 23.1428C14.7784 23.7812 16.0965 24.1177 17.4378 24.1182H17.4412H17.4413C21.8585 24.1182 25.4543 20.5234 25.4562 16.1058C25.457 13.9648 24.624 11.9517 23.1108 10.4372ZM17.4413 22.765H17.4387C16.2431 22.7643 15.0706 22.4434 14.048 21.8365L13.8046 21.6923L11.2832 22.3533L11.9564 19.8959L11.7978 19.644C11.1309 18.5836 10.7789 17.3582 10.7794 16.0999C10.7808 12.428 13.7691 9.44073 17.4438 9.44073C19.2232 9.44146 20.8957 10.1351 22.1535 11.3938C23.4113 12.6525 24.1034 14.3257 24.1029 16.1053C24.1013 19.7773 21.1129 22.765 17.4413 22.765Z" fill="white"/>
</g></svg></svg>